<?xml version="1.0" standalone="no"?>
<!DOCTYPE svg PUBLIC "-//W3C//DTD SVG 20010904//EN" "http://www.w3.org/TR/2001/REC-SVG-20010904/DTD/svg10.dtd">
<svg version="1.0" xmlns="http://www.w3.org/2000/svg"
     width="700.000000pt" height="700.000000pt" viewBox="0 0 700.000000 700.000000"
     preserveAspectRatio="xMidYMid meet">
  <g transform="translate(0.000000,700.000000) scale(0.100000,-0.100000)"
     fill="#000000" stroke="none">
    <path d="M1365 5635 c-291 -53 -530 -242 -640 -505 -63 -151 -60 -73 -57
    -1425 l3 -1230 23 -85 c96 -352 355 -602 707 -682 58 -13 250 -15 1299 -15
    1049 0 1241 2 1299 15 352 80 611 330 707 682 l23 85 3 1230 c3 1352 6 1274
    -57 1425 -126 301 -402 499 -732 525 -126 10 -2465 10 -2578 -20z m2574 -190
    c183 -39 347 -167 427 -334 66 -138 64 -94 64 -1406 0 -1312 2 -1268 -64
    -1406 -80 -167 -244 -295 -427 -334 -90 -19 -2438 -19 -2528 0 -183 39 -347
    167 -427 334 -66 138 -64 94 -64 1406 0 1312 -2 1268 64 1406 80 167 244 295
    427 334 90 19 2438 19 2528 0z"/>
    <path d="M2105 4589 c-44 -12 -89 -53 -106 -94 -7 -18 -13 -58 -13 -90 0 -49
    5 -66 28 -98 37 -51 77 -72 138 -72 61 0 101 21 138 72 23 32 28 49 28 98 0
    49 -5 66 -28 98 -37 51 -77 72 -138 72 -21 0 -42 -3 -47 -6z"/>
    <path d="M3465 4589 c-44 -12 -89 -53 -106 -94 -7 -18 -13 -58 -13 -90 0 -49
    5 -66 28 -98 37 -51 77 -72 138 -72 61 0 101 21 138 72 23 32 28 49 28 98 0
    49 -5 66 -28 98 -37 51 -77 72 -138 72 -21 0 -42 -3 -47 -6z"/>
    <path d="M4825 4589 c-44 -12 -89 -53 -106 -94 -7 -18 -13 -58 -13 -90 0 -49
    5 -66 28 -98 37 -51 77 -72 138 -72 61 0 101 21 138 72 23 32 28 49 28 98 0
    49 -5 66 -28 98 -37 51 -77 72 -138 72 -21 0 -42 -3 -47 -6z"/>
    <path d="M2105 3229 c-44 -12 -89 -53 -106 -94 -7 -18 -13 -58 -13 -90 0 -49
    5 -66 28 -98 37 -51 77 -72 138 -72 61 0 101 21 138 72 23 32 28 49 28 98 0
    49 -5 66 -28 98 -37 51 -77 72 -138 72 -21 0 -42 -3 -47 -6z"/>
    <path d="M3465 3229 c-44 -12 -89 -53 -106 -94 -7 -18 -13 -58 -13 -90 0 -49
    5 -66 28 -98 37 -51 77 -72 138 -72 61 0 101 21 138 72 23 32 28 49 28 98 0
    49 -5 66 -28 98 -37 51 -77 72 -138 72 -21 0 -42 -3 -47 -6z"/>
    <path d="M4825 3229 c-44 -12 -89 -53 -106 -94 -7 -18 -13 -58 -13 -90 0 -49
    5 -66 28 -98 37 -51 77 -72 138 -72 61 0 101 21 138 72 23 32 28 49 28 98 0
    49 -5 66 -28 98 -37 51 -77 72 -138 72 -21 0 -42 -3 -47 -6z"/>
    <path d="M2105 1869 c-44 -12 -89 -53 -106 -94 -7 -18 -13 -58 -13 -90 0 -49
    5 -66 28 -98 37 -51 77 -72 138 -72 61 0 101 21 138 72 23 32 28 49 28 98 0
    49 -5 66 -28 98 -37 51 -77 72 -138 72 -21 0 -42 -3 -47 -6z"/>
    <path d="M3465 1869 c-44 -12 -89 -53 -106 -94 -7 -18 -13 -58 -13 -90 0 -49
    5 -66 28 -98 37 -51 77 -72 138 -72 61 0 101 21 138 72 23 32 28 49 28 98 0
    49 -5 66 -28 98 -37 51 -77 72 -138 72 -21 0 -42 -3 -47 -6z"/>
    <path d="M4825 1869 c-44 -12 -89 -53 -106 -94 -7 -18 -13 -58 -13 -90 0 -49
    5 -66 28 -98 37 -51 77 -72 138 -72 61 0 101 21 138 72 23 32 28 49 28 98 0
    49 -5 66 -28 98 -37 51 -77 72 -138 72 -21 0 -42 -3 -47 -6z"/>
  </g>
</svg> 